name C:\Users\u0101727\Documents\MyRepositories\upper-imu-dc\Results\main_tracking\Case_45\FLX01_angularVelocities_groundFrame.mot
datacolumns 4
datarows 117
range 0.50600000 1.20200000
endheader 
time	radius_imu_x	radius_imu_y	radius_imu_z	
          0.50600000	         -0.21970098	         -4.58965796	          0.35004485	
          0.51200000	         -0.21845927	         -4.58887506	          0.35089811	
          0.51800000	         -0.21677452	         -4.58695540	          0.35206509	
          0.52400000	         -0.21488243	         -4.58401795	          0.35318099	
          0.53000000	         -0.21296846	         -4.58002317	          0.35421797	
          0.53600000	         -0.21120428	         -4.57487977	          0.35523200	
          0.54200000	         -0.20972798	         -4.56852136	          0.35630776	
          0.54800000	         -0.20865616	         -4.56092335	          0.35753641	
          0.55400000	         -0.20808739	         -4.55211256	          0.35901088	
          0.56000000	         -0.20810496	         -4.54217156	          0.36082498	
          0.56600000	         -0.20877830	         -4.53123973	          0.36307326	
          0.57200000	         -0.21016337	         -4.51951077	          0.36585109	
          0.57800000	         -0.21230292	         -4.50722816	          0.36925435	
          0.58400000	         -0.21522649	         -4.49467909	          0.37337867	
          0.59000000	         -0.21895080	         -4.48218435	          0.37831839	
          0.59600000	         -0.22347984	         -4.47009003	          0.38416534	
          0.60200000	         -0.22880584	         -4.45875247	          0.39100688	
          0.60800000	         -0.23491066	         -4.44852351	          0.39892435	
          0.61400000	         -0.24176711	         -4.43973832	          0.40799166	
          0.62000000	         -0.24934095	         -4.43269921	          0.41827340	
          0.62600000	         -0.25759239	         -4.42766454	          0.42982342	
          0.63200000	         -0.26647782	         -4.42483739	          0.44268305	
          0.63800000	         -0.27595099	         -4.42435783	          0.45687972	
          0.64400000	         -0.28596337	         -4.42630130	          0.47242620	
          0.65000000	         -0.29646436	         -4.43068019	          0.48932031	
          0.65600000	         -0.30740122	         -4.43744658	          0.50754509	
          0.66200000	         -0.31871905	         -4.44649825	          0.52706947	
          0.66800000	         -0.33036081	         -4.45768435	          0.54784874	
          0.67400000	         -0.34226804	         -4.47080872	          0.56982506	
          0.68000000	         -0.35438176	         -4.48563400	          0.59292746	
          0.68600000	         -0.36664401	         -4.50188298	          0.61707192	
          0.69200000	         -0.37899949	         -4.51924263	          0.64216190	
          0.69800000	         -0.39139719	         -4.53736710	          0.66808834	
          0.70400000	         -0.40379200	         -4.55588099	          0.69472981	
          0.71000000	         -0.41614561	         -4.57438772	          0.72195371	
          0.71600000	         -0.42842780	         -4.59247452	          0.74961714	
          0.72200000	         -0.44061642	         -4.60972605	          0.77757021	
          0.72800000	         -0.45269691	         -4.62573632	          0.80565845	
          0.73400000	         -0.46466204	         -4.64011808	          0.83372504	
          0.74000000	         -0.47651040	         -4.65251720	          0.86161454	
          0.74600000	         -0.48824592	         -4.66262009	          0.88917515	
          0.75200000	         -0.49987613	         -4.67016654	          0.91626339	
          0.75800000	         -0.51141055	         -4.67495797	          0.94274712	
          0.76400000	         -0.52285971	         -4.67686138	          0.96850787	
          0.77000000	         -0.53423350	         -4.67581530	          0.99344467	
          0.77600000	         -0.54554057	         -4.67182967	          1.01747610	
          0.78200000	         -0.55678724	         -4.66498699	          1.04054406	
          0.78800000	         -0.56797666	         -4.65543881	          1.06261527	
          0.79400000	         -0.57910754	         -4.64340054	          1.08368140	
          0.80000000	         -0.59017257	         -4.62914630	          1.10375987	
          0.80600000	         -0.60115658	         -4.61300150	          1.12289304	
          0.81200000	         -0.61203458	         -4.59533486	          1.14114720	
          0.81800000	         -0.62276961	         -4.57654882	          1.15861047	
          0.82400000	         -0.63330996	         -4.55707127	          1.17539017	
          0.83000000	         -0.64358705	         -4.53734606	          1.19160980	
          0.83600000	         -0.65351291	         -4.51782554	          1.20740638	
          0.84200000	         -0.66297955	         -4.49895994	          1.22292656	
          0.84800000	         -0.67185896	         -4.48118785	          1.23832324	
          0.85400000	         -0.68000353	         -4.46492960	          1.25375296	
          0.86000000	         -0.68724844	         -4.45057791	          1.26937237	
          0.86600000	         -0.69341407	         -4.43849249	          1.28533563	
          0.87200000	         -0.69831036	         -4.42899271	          1.30179126	
          0.87800000	         -0.70174193	         -4.42235154	          1.31887910	
          0.88400000	         -0.70351290	         -4.41879249	          1.33672815	
          0.89000000	         -0.70343300	         -4.41848574	          1.35545433	
          0.89600000	         -0.70132344	         -4.42154602	          1.37515873	
          0.90200000	         -0.69702352	         -4.42803074	          1.39592623	
          0.90800000	         -0.69039750	         -4.43793794	          1.41782394	
          0.91400000	         -0.68134119	         -4.45120536	          1.44089995	
          0.92000000	         -0.66978872	         -4.46770970	          1.46518246	
          0.92600000	         -0.65571921	         -4.48726585	          1.49067878	
          0.93200000	         -0.63916291	         -4.50962702	          1.51737440	
          0.93800000	         -0.62020617	         -4.53448505	          1.54523114	
          0.94400000	         -0.59899470	         -4.56147160	          1.57418423	
          0.95000000	         -0.57573424	         -4.59016148	          1.60413962	
          0.95600000	         -0.55068939	         -4.62007619	          1.63497041	
          0.96200000	         -0.52417886	         -4.65069060	          1.66651335	
          0.96800000	         -0.49656844	         -4.68144201	          1.69856733	
          0.97400000	         -0.46826286	         -4.71173931	          1.73089292	
          0.98000000	         -0.43969476	         -4.74097577	          1.76321383	
          0.98600000	         -0.41131469	         -4.76854090	          1.79522027	
          0.99200000	         -0.38357768	         -4.79383748	          1.82657505	
          0.99800000	         -0.35693096	         -4.81629915	          1.85692347	
          1.00400000	         -0.33180561	         -4.83540356	          1.88590481	
          1.01000000	         -0.30860765	         -4.85068715	          1.91316487	
          1.01600000	         -0.28771289	         -4.86175466	          1.93836754	
          1.02200000	         -0.26946162	         -4.86828836	          1.96120634	
          1.02800000	         -0.25415434	         -4.87005369	          1.98141322	
          1.03400000	         -0.24205008	         -4.86689933	          1.99876354	
          1.04000000	         -0.23336396	         -4.85875632	          2.01307974	
          1.04600000	         -0.22826498	         -4.84563475	          2.02423275	
          1.05200000	         -0.22687457	         -4.82761825	          2.03214240	
          1.05800000	         -0.22926492	         -4.80485736	          2.03677621	
          1.06400000	         -0.23545717	         -4.77756231	          2.03814692	
          1.07000000	         -0.24542180	         -4.74599334	          2.03630884	
          1.07600000	         -0.25907838	         -4.71045222	          2.03135413	
          1.08200000	         -0.27630000	         -4.67126990	          2.02340710	
          1.08800000	         -0.29691880	         -4.62879470	          2.01261813	
          1.09400000	         -0.32073030	         -4.58338342	          1.99915869	
          1.10000000	         -0.34750150	         -4.53539078	          1.98321562	
          1.10600000	         -0.37697631	         -4.48516316	          1.96498765	
          1.11200000	         -0.40888430	         -4.43303121	          1.94468150	
          1.11800000	         -0.44294821	         -4.37930469	          1.92250888	
          1.12400000	         -0.47888830	         -4.32427098	          1.89868493	
          1.13000000	         -0.51642766	         -4.26819300	          1.87342653	
          1.13600000	         -0.55529446	         -4.21130972	          1.84695156	
          1.14200000	         -0.59522483	         -4.15383597	          1.81947774	
          1.14800000	         -0.63596436	         -4.09596301	          1.79122122	
          1.15400000	         -0.67726726	         -4.03786014	          1.76239529	
          1.16000000	         -0.71889658	         -3.97967520	          1.73320798	
          1.16600000	         -0.76062285	         -3.92153574	          1.70386005	
          1.17200000	         -0.80222467	         -3.86354877	          1.67454164	
          1.17800000	         -0.84348973	         -3.80580024	          1.64542919	
          1.18400000	         -0.88421503	         -3.74835523	          1.61668316	
          1.19000000	         -0.92420893	         -3.69125711	          1.58844534	
          1.19600000	         -0.96329234	         -3.63452778	          1.56083734	
          1.20200000	         -1.00130082	         -3.57816773	          1.53395890	
